<mxfile host="app.diagrams.net" modified="2023-10-16T18:44:03.509Z" agent="Mozilla/5.0 (X11; Linux x86_64; rv:109.0) Gecko/20100101 Firefox/118.0" etag="MhrlB-kCeF949en_1kAb" version="22.0.4" type="github">
  <diagram id="R2lEEEUBdFMjLlhIrx00" name="Page-1">
    <mxGraphModel dx="5907" dy="5988" grid="0" gridSize="10" guides="1" tooltips="1" connect="0" arrows="1" fold="1" page="1" pageScale="1" pageWidth="3300" pageHeight="4681" background="#000000" math="0" shadow="0" extFonts="Permanent Marker^https://fonts.googleapis.com/css?family=Permanent+Marker">
      <root>
        <mxCell id="0" />
        <mxCell id="1" parent="0" />
        <mxCell id="0Xb8Ie2mT24lhCVPNa7t-8" value="" style="shape=link;html=1;rounded=0;width=4;labelBackgroundColor=none;fontFamily=Helvetica;strokeColor=#FFFFFF;fontColor=#FFFFFF;" parent="1" source="d79e8XBhKQ2igxdSj6Hg-16" target="d79e8XBhKQ2igxdSj6Hg-80" edge="1">
          <mxGeometry relative="1" as="geometry">
            <mxPoint x="-407" y="416" as="sourcePoint" />
            <mxPoint x="-263" y="110" as="targetPoint" />
          </mxGeometry>
        </mxCell>
        <mxCell id="0Xb8Ie2mT24lhCVPNa7t-9" value="1" style="resizable=0;html=1;whiteSpace=wrap;align=right;verticalAlign=bottom;labelBackgroundColor=none;fontFamily=Helvetica;fontColor=#FFFFFF;" parent="0Xb8Ie2mT24lhCVPNa7t-8" connectable="0" vertex="1">
          <mxGeometry relative="1" as="geometry">
            <mxPoint x="15" y="-21" as="offset" />
          </mxGeometry>
        </mxCell>
        <mxCell id="0Xb8Ie2mT24lhCVPNa7t-14" value="" style="shape=link;html=1;rounded=0;labelBackgroundColor=none;fontFamily=Helvetica;labelBorderColor=none;strokeColor=#FFFFFF;fontColor=#FFFFFF;" parent="1" source="d79e8XBhKQ2igxdSj6Hg-15" target="d79e8XBhKQ2igxdSj6Hg-41" edge="1">
          <mxGeometry relative="1" as="geometry">
            <mxPoint x="-218" y="247" as="sourcePoint" />
            <mxPoint x="-220" y="177" as="targetPoint" />
          </mxGeometry>
        </mxCell>
        <mxCell id="0Xb8Ie2mT24lhCVPNa7t-15" value="1" style="resizable=0;html=1;whiteSpace=wrap;align=right;verticalAlign=bottom;labelBackgroundColor=none;fontFamily=Helvetica;labelBorderColor=none;fontColor=#FFFFFF;" parent="0Xb8Ie2mT24lhCVPNa7t-14" connectable="0" vertex="1">
          <mxGeometry relative="1" as="geometry">
            <mxPoint x="14" y="-19" as="offset" />
          </mxGeometry>
        </mxCell>
        <mxCell id="nrtoLdBWplfBHigpbtfn-3" value="" style="group" vertex="1" connectable="0" parent="1">
          <mxGeometry x="-986" y="225" width="321" height="292" as="geometry" />
        </mxCell>
        <mxCell id="nrtoLdBWplfBHigpbtfn-2" value="" style="group;direction=east;flipV=1;" vertex="1" connectable="0" parent="nrtoLdBWplfBHigpbtfn-3">
          <mxGeometry x="-202" y="-260" width="523" height="483" as="geometry" />
        </mxCell>
        <mxCell id="Yh4BVkky_7kEf2Jk04-v-4" value="MSA" style="ellipse;whiteSpace=wrap;html=1;rounded=0;labelBackgroundColor=none;fontFamily=Helvetica;strokeColor=#FFFFFF;fillColor=#6bad3e;gradientColor=none;fontColor=#000000;labelBorderColor=none;fontStyle=0;" parent="nrtoLdBWplfBHigpbtfn-2" vertex="1">
          <mxGeometry x="137" y="3" width="80" height="50" as="geometry" />
        </mxCell>
        <mxCell id="Yh4BVkky_7kEf2Jk04-v-5" value="HMM PROFILE" style="ellipse;whiteSpace=wrap;html=1;rounded=0;labelBackgroundColor=none;fontFamily=Helvetica;strokeColor=#FFFFFF;fillColor=#6bad3e;fontColor=#000000;labelBorderColor=none;fontStyle=0;" parent="nrtoLdBWplfBHigpbtfn-2" vertex="1">
          <mxGeometry x="23" y="236" width="102" height="49" as="geometry" />
        </mxCell>
        <mxCell id="Yh4BVkky_7kEf2Jk04-v-7" value="TOPOLOGY PREDICTION" style="ellipse;whiteSpace=wrap;html=1;rounded=0;labelBackgroundColor=none;direction=west;fontFamily=Helvetica;strokeColor=#FFFFFF;fillColor=#6bad3e;fontColor=#000000;labelBorderColor=none;fontStyle=0;" parent="nrtoLdBWplfBHigpbtfn-2" vertex="1">
          <mxGeometry x="413" y="103" width="102" height="57" as="geometry" />
        </mxCell>
        <mxCell id="Yh4BVkky_7kEf2Jk04-v-11" value="&lt;u&gt;&lt;b&gt;FAMILY ID&lt;/b&gt;&lt;/u&gt;" style="ellipse;whiteSpace=wrap;html=1;rounded=0;labelBackgroundColor=none;fontFamily=Helvetica;fillColor=#6bad3e;gradientColor=none;strokeColor=#FFFFFF;fontColor=#000000;labelBorderColor=none;fontStyle=0;" parent="nrtoLdBWplfBHigpbtfn-2" vertex="1">
          <mxGeometry x="225" y="31" width="90" height="50" as="geometry" />
        </mxCell>
        <mxCell id="7EveSGwWqRpmitjXYDmx-1" value="3D STRUCTURE" style="ellipse;whiteSpace=wrap;html=1;align=center;labelBackgroundColor=none;fontFamily=Helvetica;fillColor=#6bad3e;strokeColor=#FFFFFF;fontColor=#000000;labelBorderColor=none;fontStyle=0;" parent="nrtoLdBWplfBHigpbtfn-2" vertex="1">
          <mxGeometry x="413" y="168" width="110" height="60" as="geometry" />
        </mxCell>
        <mxCell id="HY7Dbg6rA6W7Nj4UcRwg-1" value="AVERAGE SEQ LENGTH" style="ellipse;whiteSpace=wrap;html=1;align=center;dashed=1;labelBackgroundColor=none;fontFamily=Helvetica;fillColor=#6bad3e;gradientColor=none;strokeColor=#FFFFFF;fontColor=#000000;labelBorderColor=none;fontStyle=0;" parent="nrtoLdBWplfBHigpbtfn-2" vertex="1">
          <mxGeometry x="373" y="43" width="110" height="50" as="geometry" />
        </mxCell>
        <mxCell id="R8yv3j7y8IBAC_rJrTb6-4" value="GEOGRAPHICAL DISTRIBUTION" style="ellipse;shape=doubleEllipse;margin=3;whiteSpace=wrap;html=1;align=center;labelBackgroundColor=none;fontFamily=Helvetica;strokeColor=#FFFFFF;fillColor=#6bad3e;fontColor=#000000;labelBorderColor=none;fontStyle=0;strokeWidth=2;" parent="nrtoLdBWplfBHigpbtfn-2" vertex="1">
          <mxGeometry x="40" y="43" width="110" height="50" as="geometry" />
        </mxCell>
        <mxCell id="R8yv3j7y8IBAC_rJrTb6-6" value="SECONDARY STRUCTURE" style="ellipse;shape=doubleEllipse;margin=3;whiteSpace=wrap;html=1;align=center;labelBackgroundColor=none;fontFamily=Helvetica;fillColor=#6bad3e;strokeColor=#FFFFFF;fontColor=#000000;labelBorderColor=none;fontStyle=0;strokeWidth=2;" parent="nrtoLdBWplfBHigpbtfn-2" vertex="1">
          <mxGeometry x="387" y="240" width="120" height="50" as="geometry" />
        </mxCell>
        <mxCell id="3lu_bXjI-AjVLZ6_Voox-1" value="CONS. SEQUENCE" style="ellipse;whiteSpace=wrap;html=1;align=center;dashed=1;labelBackgroundColor=none;fontFamily=Helvetica;strokeColor=#FFFFFF;fillColor=#6bad3e;gradientColor=none;fontColor=#000000;labelBorderColor=none;fontStyle=0;" parent="nrtoLdBWplfBHigpbtfn-2" vertex="1">
          <mxGeometry x="303" width="100" height="40" as="geometry" />
        </mxCell>
        <mxCell id="Kpe2y5wFK3_2QbmaVthL-2" value="MOST COMMON ECOSYSTEM" style="ellipse;whiteSpace=wrap;html=1;align=center;dashed=1;labelBackgroundColor=none;fontFamily=Helvetica;fillColor=#6bad3e;gradientColor=none;strokeColor=#FFFFFF;fontColor=#000000;labelBorderColor=none;fontStyle=0;" parent="nrtoLdBWplfBHigpbtfn-2" vertex="1">
          <mxGeometry y="106.5" width="110" height="50" as="geometry" />
        </mxCell>
        <mxCell id="Kpe2y5wFK3_2QbmaVthL-5" value="MOST COMMON TAXONOMY" style="ellipse;whiteSpace=wrap;html=1;align=center;dashed=1;labelBackgroundColor=none;fontFamily=Helvetica;fillColor=#6bad3e;gradientColor=none;strokeColor=#FFFFFF;fontColor=#000000;labelBorderColor=none;fontStyle=0;" vertex="1" parent="nrtoLdBWplfBHigpbtfn-2">
          <mxGeometry x="9" y="176" width="110" height="50" as="geometry" />
        </mxCell>
        <mxCell id="Yh4BVkky_7kEf2Jk04-v-1" value="NMPF" style="rounded=0;whiteSpace=wrap;html=1;labelBackgroundColor=none;fontFamily=Helvetica;strokeColor=#FFFFFF;fillColor=#589cdb;fontColor=#000000;fontStyle=1;direction=west;" parent="nrtoLdBWplfBHigpbtfn-2" vertex="1">
          <mxGeometry x="187" y="151" width="130" height="60" as="geometry" />
        </mxCell>
        <mxCell id="0KlBq7H0z7ffkpI3OsFQ-44" style="edgeStyle=none;shape=connector;rounded=0;orthogonalLoop=1;jettySize=auto;html=1;labelBackgroundColor=default;strokeColor=#FFFFFF;align=center;verticalAlign=middle;fontFamily=Helvetica;fontSize=11;fontColor=default;endArrow=none;endFill=0;" parent="nrtoLdBWplfBHigpbtfn-2" source="Yh4BVkky_7kEf2Jk04-v-4" target="Yh4BVkky_7kEf2Jk04-v-1" edge="1">
          <mxGeometry relative="1" as="geometry" />
        </mxCell>
        <mxCell id="0KlBq7H0z7ffkpI3OsFQ-39" style="edgeStyle=none;shape=connector;rounded=0;orthogonalLoop=1;jettySize=auto;html=1;labelBackgroundColor=default;strokeColor=#FFFFFF;align=center;verticalAlign=middle;fontFamily=Helvetica;fontSize=11;fontColor=default;endArrow=none;endFill=0;" parent="nrtoLdBWplfBHigpbtfn-2" source="Yh4BVkky_7kEf2Jk04-v-5" target="Yh4BVkky_7kEf2Jk04-v-1" edge="1">
          <mxGeometry relative="1" as="geometry" />
        </mxCell>
        <mxCell id="0KlBq7H0z7ffkpI3OsFQ-48" style="edgeStyle=none;shape=connector;rounded=0;orthogonalLoop=1;jettySize=auto;html=1;labelBackgroundColor=default;strokeColor=#FFFFFF;align=center;verticalAlign=middle;fontFamily=Helvetica;fontSize=11;fontColor=default;endArrow=none;endFill=0;" parent="nrtoLdBWplfBHigpbtfn-2" source="Yh4BVkky_7kEf2Jk04-v-7" target="Yh4BVkky_7kEf2Jk04-v-1" edge="1">
          <mxGeometry relative="1" as="geometry" />
        </mxCell>
        <mxCell id="0KlBq7H0z7ffkpI3OsFQ-45" style="edgeStyle=none;shape=connector;rounded=0;orthogonalLoop=1;jettySize=auto;html=1;labelBackgroundColor=default;strokeColor=#FFFFFF;align=center;verticalAlign=middle;fontFamily=Helvetica;fontSize=11;fontColor=default;endArrow=none;endFill=0;" parent="nrtoLdBWplfBHigpbtfn-2" source="Yh4BVkky_7kEf2Jk04-v-11" target="Yh4BVkky_7kEf2Jk04-v-1" edge="1">
          <mxGeometry relative="1" as="geometry" />
        </mxCell>
        <mxCell id="0KlBq7H0z7ffkpI3OsFQ-49" style="edgeStyle=none;shape=connector;rounded=0;orthogonalLoop=1;jettySize=auto;html=1;labelBackgroundColor=default;strokeColor=#FFFFFF;align=center;verticalAlign=middle;fontFamily=Helvetica;fontSize=11;fontColor=default;endArrow=none;endFill=0;" parent="nrtoLdBWplfBHigpbtfn-2" source="7EveSGwWqRpmitjXYDmx-1" target="Yh4BVkky_7kEf2Jk04-v-1" edge="1">
          <mxGeometry relative="1" as="geometry" />
        </mxCell>
        <mxCell id="0KlBq7H0z7ffkpI3OsFQ-47" style="edgeStyle=none;shape=connector;rounded=0;orthogonalLoop=1;jettySize=auto;html=1;labelBackgroundColor=default;strokeColor=#FFFFFF;align=center;verticalAlign=middle;fontFamily=Helvetica;fontSize=11;fontColor=default;endArrow=none;endFill=0;" parent="nrtoLdBWplfBHigpbtfn-2" source="HY7Dbg6rA6W7Nj4UcRwg-1" target="Yh4BVkky_7kEf2Jk04-v-1" edge="1">
          <mxGeometry relative="1" as="geometry" />
        </mxCell>
        <mxCell id="0KlBq7H0z7ffkpI3OsFQ-43" style="edgeStyle=none;shape=connector;rounded=0;orthogonalLoop=1;jettySize=auto;html=1;labelBackgroundColor=default;strokeColor=#FFFFFF;align=center;verticalAlign=middle;fontFamily=Helvetica;fontSize=11;fontColor=default;endArrow=none;endFill=0;" parent="nrtoLdBWplfBHigpbtfn-2" source="R8yv3j7y8IBAC_rJrTb6-4" target="Yh4BVkky_7kEf2Jk04-v-1" edge="1">
          <mxGeometry relative="1" as="geometry" />
        </mxCell>
        <mxCell id="0KlBq7H0z7ffkpI3OsFQ-41" style="edgeStyle=none;shape=connector;rounded=0;orthogonalLoop=1;jettySize=auto;html=1;labelBackgroundColor=default;strokeColor=#FFFFFF;align=center;verticalAlign=middle;fontFamily=Helvetica;fontSize=11;fontColor=default;endArrow=none;endFill=0;exitX=0.982;exitY=0.48;exitDx=0;exitDy=0;exitPerimeter=0;" parent="nrtoLdBWplfBHigpbtfn-2" source="Kpe2y5wFK3_2QbmaVthL-2" target="Yh4BVkky_7kEf2Jk04-v-1" edge="1">
          <mxGeometry relative="1" as="geometry">
            <mxPoint x="894.7319502698322" y="-312.49417045641553" as="sourcePoint" />
          </mxGeometry>
        </mxCell>
        <mxCell id="0KlBq7H0z7ffkpI3OsFQ-50" style="edgeStyle=none;shape=connector;rounded=0;orthogonalLoop=1;jettySize=auto;html=1;labelBackgroundColor=default;strokeColor=#FFFFFF;align=center;verticalAlign=middle;fontFamily=Helvetica;fontSize=11;fontColor=default;endArrow=none;endFill=0;" parent="nrtoLdBWplfBHigpbtfn-2" source="R8yv3j7y8IBAC_rJrTb6-6" target="Yh4BVkky_7kEf2Jk04-v-1" edge="1">
          <mxGeometry relative="1" as="geometry" />
        </mxCell>
        <mxCell id="0KlBq7H0z7ffkpI3OsFQ-40" style="edgeStyle=none;shape=connector;rounded=0;orthogonalLoop=1;jettySize=auto;html=1;labelBackgroundColor=default;strokeColor=#FFFFFF;align=center;verticalAlign=middle;fontFamily=Helvetica;fontSize=11;fontColor=default;endArrow=none;endFill=0;exitX=1;exitY=0.52;exitDx=0;exitDy=0;exitPerimeter=0;" parent="nrtoLdBWplfBHigpbtfn-2" source="Kpe2y5wFK3_2QbmaVthL-5" target="Yh4BVkky_7kEf2Jk04-v-1" edge="1">
          <mxGeometry relative="1" as="geometry">
            <mxPoint x="887.1430596311832" y="-262.3003994205271" as="sourcePoint" />
          </mxGeometry>
        </mxCell>
        <mxCell id="0KlBq7H0z7ffkpI3OsFQ-46" style="edgeStyle=none;shape=connector;rounded=0;orthogonalLoop=1;jettySize=auto;html=1;labelBackgroundColor=default;strokeColor=#FFFFFF;align=center;verticalAlign=middle;fontFamily=Helvetica;fontSize=11;fontColor=default;endArrow=none;endFill=0;" parent="nrtoLdBWplfBHigpbtfn-2" source="3lu_bXjI-AjVLZ6_Voox-1" target="Yh4BVkky_7kEf2Jk04-v-1" edge="1">
          <mxGeometry relative="1" as="geometry" />
        </mxCell>
        <mxCell id="Yh4BVkky_7kEf2Jk04-v-31" value="COMPRISES" style="rhombus;whiteSpace=wrap;html=1;rounded=0;labelBackgroundColor=none;fontFamily=Helvetica;fillColor=#48cb8e;strokeColor=#FFFFFF;fontColor=#000000;" parent="nrtoLdBWplfBHigpbtfn-2" vertex="1">
          <mxGeometry x="202" y="264" width="100" height="70" as="geometry" />
        </mxCell>
        <mxCell id="nrtoLdBWplfBHigpbtfn-4" value="" style="group;flipH=1;" vertex="1" connectable="0" parent="nrtoLdBWplfBHigpbtfn-2">
          <mxGeometry y="275" width="446" height="208" as="geometry" />
        </mxCell>
        <mxCell id="Yh4BVkky_7kEf2Jk04-v-29" value="&lt;div&gt;PROTEIN&lt;/div&gt;" style="rounded=0;whiteSpace=wrap;html=1;labelBackgroundColor=none;fontFamily=Helvetica;labelBorderColor=none;fillColor=#589cdb;strokeColor=#FFFFFF;fontColor=#000000;fontStyle=1;" parent="nrtoLdBWplfBHigpbtfn-4" vertex="1">
          <mxGeometry x="187" y="92" width="130" height="60" as="geometry" />
        </mxCell>
        <mxCell id="_KlqRlnfx3LXGcyiwgws-1" value="SEQUENCE" style="ellipse;whiteSpace=wrap;html=1;labelBackgroundColor=none;fontFamily=Helvetica;labelBorderColor=none;fillColor=#6bad3e;strokeColor=#FFFFFF;fontColor=#000000;fontStyle=0;" parent="nrtoLdBWplfBHigpbtfn-4" vertex="1">
          <mxGeometry x="-4" y="101" width="122" height="51" as="geometry" />
        </mxCell>
        <mxCell id="_KlqRlnfx3LXGcyiwgws-3" value="&lt;span&gt;&lt;u&gt;&lt;b&gt;PROTEIN ID&lt;/b&gt;&lt;/u&gt;&lt;/span&gt;" style="ellipse;whiteSpace=wrap;html=1;labelBackgroundColor=none;fontFamily=Helvetica;labelBorderColor=none;fillColor=#6bad3e;strokeColor=#FFFFFF;fontColor=#000000;fontStyle=0" parent="nrtoLdBWplfBHigpbtfn-4" vertex="1">
          <mxGeometry x="345" y="96.5" width="120" height="60" as="geometry" />
        </mxCell>
        <mxCell id="0Xb8Ie2mT24lhCVPNa7t-26" value="PHYLOGENY" style="ellipse;shape=doubleEllipse;margin=3;whiteSpace=wrap;html=1;align=center;labelBackgroundColor=none;fontFamily=Helvetica;fillColor=#6bad3e;strokeColor=#FFFFFF;fontColor=#000000;labelBorderColor=none;fontStyle=0;strokeWidth=2;" parent="nrtoLdBWplfBHigpbtfn-4" vertex="1">
          <mxGeometry x="-8" y="26" width="130" height="51" as="geometry" />
        </mxCell>
        <mxCell id="0Xb8Ie2mT24lhCVPNa7t-27" value="LENGTH" style="ellipse;whiteSpace=wrap;html=1;align=center;dashed=1;labelBackgroundColor=none;fontFamily=Helvetica;labelBorderColor=none;fillColor=#6bad3e;strokeColor=#FFFFFF;fontColor=#000000;fontStyle=0;" parent="nrtoLdBWplfBHigpbtfn-4" vertex="1">
          <mxGeometry y="162" width="120" height="60" as="geometry" />
        </mxCell>
        <mxCell id="0KlBq7H0z7ffkpI3OsFQ-36" style="edgeStyle=none;shape=connector;rounded=0;orthogonalLoop=1;jettySize=auto;html=1;labelBackgroundColor=default;strokeColor=#FFFFFF;align=center;verticalAlign=middle;fontFamily=Helvetica;fontSize=11;fontColor=default;endArrow=none;endFill=0;" parent="nrtoLdBWplfBHigpbtfn-4" source="_KlqRlnfx3LXGcyiwgws-1" target="Yh4BVkky_7kEf2Jk04-v-29" edge="1">
          <mxGeometry relative="1" as="geometry" />
        </mxCell>
        <mxCell id="0KlBq7H0z7ffkpI3OsFQ-38" style="edgeStyle=none;shape=connector;rounded=0;orthogonalLoop=1;jettySize=auto;html=1;labelBackgroundColor=default;strokeColor=#FFFFFF;align=center;verticalAlign=middle;fontFamily=Helvetica;fontSize=11;fontColor=default;endArrow=none;endFill=0;" parent="nrtoLdBWplfBHigpbtfn-4" source="_KlqRlnfx3LXGcyiwgws-3" target="Yh4BVkky_7kEf2Jk04-v-29" edge="1">
          <mxGeometry relative="1" as="geometry" />
        </mxCell>
        <mxCell id="0KlBq7H0z7ffkpI3OsFQ-35" style="edgeStyle=none;shape=connector;rounded=0;orthogonalLoop=1;jettySize=auto;html=1;labelBackgroundColor=default;strokeColor=#FFFFFF;align=center;verticalAlign=middle;fontFamily=Helvetica;fontSize=11;fontColor=default;endArrow=none;endFill=0;" parent="nrtoLdBWplfBHigpbtfn-4" source="0Xb8Ie2mT24lhCVPNa7t-26" target="Yh4BVkky_7kEf2Jk04-v-29" edge="1">
          <mxGeometry relative="1" as="geometry" />
        </mxCell>
        <mxCell id="0KlBq7H0z7ffkpI3OsFQ-37" style="edgeStyle=none;shape=connector;rounded=0;orthogonalLoop=1;jettySize=auto;html=1;labelBackgroundColor=default;strokeColor=#FFFFFF;align=center;verticalAlign=middle;fontFamily=Helvetica;fontSize=11;fontColor=default;endArrow=none;endFill=0;" parent="nrtoLdBWplfBHigpbtfn-4" source="0Xb8Ie2mT24lhCVPNa7t-27" target="Yh4BVkky_7kEf2Jk04-v-29" edge="1">
          <mxGeometry relative="1" as="geometry" />
        </mxCell>
        <mxCell id="eTx4X8iWIvXRK_4FIOhp-1" value="N" style="resizable=0;html=1;whiteSpace=wrap;align=right;verticalAlign=bottom;labelBackgroundColor=none;fontFamily=Helvetica;fontColor=#FFFFFF;" parent="nrtoLdBWplfBHigpbtfn-4" connectable="0" vertex="1">
          <mxGeometry x="270" y="77" as="geometry" />
        </mxCell>
        <mxCell id="0Xb8Ie2mT24lhCVPNa7t-17" value="" style="shape=link;html=1;rounded=0;labelBackgroundColor=none;fontFamily=Helvetica;strokeColor=#FFFFFF;" parent="nrtoLdBWplfBHigpbtfn-2" source="Yh4BVkky_7kEf2Jk04-v-31" target="Yh4BVkky_7kEf2Jk04-v-1" edge="1">
          <mxGeometry relative="1" as="geometry">
            <mxPoint x="965.01" y="-150" as="sourcePoint" />
            <mxPoint x="965.01" y="-220" as="targetPoint" />
          </mxGeometry>
        </mxCell>
        <mxCell id="0Xb8Ie2mT24lhCVPNa7t-18" value="1" style="resizable=0;html=1;whiteSpace=wrap;align=right;verticalAlign=bottom;labelBackgroundColor=none;fontFamily=Helvetica;fontColor=#FFFFFF;" parent="0Xb8Ie2mT24lhCVPNa7t-17" connectable="0" vertex="1">
          <mxGeometry relative="1" as="geometry">
            <mxPoint x="-6" y="39" as="offset" />
          </mxGeometry>
        </mxCell>
        <mxCell id="0Xb8Ie2mT24lhCVPNa7t-24" value="" style="shape=link;html=1;rounded=0;labelBackgroundColor=none;fontFamily=Helvetica;strokeColor=#FFFFFF;" parent="nrtoLdBWplfBHigpbtfn-2" source="Yh4BVkky_7kEf2Jk04-v-29" target="Yh4BVkky_7kEf2Jk04-v-31" edge="1">
          <mxGeometry relative="1" as="geometry">
            <mxPoint x="963" y="36" as="sourcePoint" />
            <mxPoint x="966.5" y="-74" as="targetPoint" />
          </mxGeometry>
        </mxCell>
        <mxCell id="d79e8XBhKQ2igxdSj6Hg-41" value="DERIVED" style="shape=rhombus;perimeter=rhombusPerimeter;whiteSpace=wrap;html=1;align=center;labelBackgroundColor=none;fontFamily=Helvetica;labelBorderColor=none;fillColor=#48cb8e;strokeColor=#FFFFFF;fontColor=#000000;rounded=0;" parent="nrtoLdBWplfBHigpbtfn-3" vertex="1">
          <mxGeometry x="-10" y="212" width="120" height="80" as="geometry" />
        </mxCell>
        <mxCell id="0Xb8Ie2mT24lhCVPNa7t-21" value="" style="shape=link;html=1;rounded=0;labelBackgroundColor=none;fontFamily=Helvetica;labelBorderColor=none;strokeColor=#FFFFFF;fontColor=#FFFFFF;" parent="nrtoLdBWplfBHigpbtfn-3" source="d79e8XBhKQ2igxdSj6Hg-41" target="Yh4BVkky_7kEf2Jk04-v-29" edge="1">
          <mxGeometry relative="1" as="geometry">
            <mxPoint x="768" y="-128" as="sourcePoint" />
            <mxPoint x="768.01" y="-248" as="targetPoint" />
          </mxGeometry>
        </mxCell>
        <mxCell id="0Xb8Ie2mT24lhCVPNa7t-22" value="Ν" style="resizable=0;html=1;whiteSpace=wrap;align=right;verticalAlign=bottom;labelBackgroundColor=none;fontFamily=Helvetica;labelBorderColor=none;fontColor=#FFFFFF;" parent="0Xb8Ie2mT24lhCVPNa7t-21" connectable="0" vertex="1">
          <mxGeometry relative="1" as="geometry">
            <mxPoint x="-7" y="30" as="offset" />
          </mxGeometry>
        </mxCell>
        <mxCell id="nrtoLdBWplfBHigpbtfn-5" value="" style="group;flipV=1;" vertex="1" connectable="0" parent="1">
          <mxGeometry x="-1179" y="555" width="430.5" height="235" as="geometry" />
        </mxCell>
        <mxCell id="d79e8XBhKQ2igxdSj6Hg-15" value="SCAFFOLD" style="rounded=0;whiteSpace=wrap;html=1;labelBackgroundColor=none;fontFamily=Helvetica;labelBorderColor=none;fillColor=#589cdb;strokeColor=#FFFFFF;fontColor=#000000;fontStyle=1;" parent="nrtoLdBWplfBHigpbtfn-5" vertex="1">
          <mxGeometry x="180" y="28" width="130" height="60" as="geometry" />
        </mxCell>
        <mxCell id="d79e8XBhKQ2igxdSj6Hg-29" value="&lt;u&gt;&lt;b&gt;SCAFFOLD ID&lt;/b&gt;&lt;/u&gt;" style="ellipse;whiteSpace=wrap;html=1;align=center;labelBackgroundColor=none;fontFamily=Helvetica;strokeColor=#FFFFFF;fillColor=#6bad3e;fontColor=#000000;labelBorderColor=none;fontStyle=0;" parent="nrtoLdBWplfBHigpbtfn-5" vertex="1">
          <mxGeometry x="-32" y="149" width="100" height="40" as="geometry" />
        </mxCell>
        <mxCell id="d79e8XBhKQ2igxdSj6Hg-36" value="LENGTH" style="ellipse;whiteSpace=wrap;html=1;align=center;labelBackgroundColor=none;fontFamily=Helvetica;labelBorderColor=none;fillColor=#6bad3e;strokeColor=#FFFFFF;fontColor=#000000;fontStyle=0;" parent="nrtoLdBWplfBHigpbtfn-5" vertex="1">
          <mxGeometry x="350" y="94" width="100" height="40" as="geometry" />
        </mxCell>
        <mxCell id="R8yv3j7y8IBAC_rJrTb6-1" value="ΝΑΜΕ" style="ellipse;whiteSpace=wrap;html=1;align=center;labelBackgroundColor=none;fontFamily=Helvetica;labelBorderColor=none;strokeColor=#FFFFFF;fillColor=#6bad3e;fontColor=#000000;fontStyle=0;" parent="nrtoLdBWplfBHigpbtfn-5" vertex="1">
          <mxGeometry x="65" y="66" width="100" height="40" as="geometry" />
        </mxCell>
        <mxCell id="0KlBq7H0z7ffkpI3OsFQ-34" style="edgeStyle=none;shape=connector;rounded=0;orthogonalLoop=1;jettySize=auto;html=1;labelBackgroundColor=default;strokeColor=#FFFFFF;align=center;verticalAlign=middle;fontFamily=Helvetica;fontSize=11;fontColor=default;endArrow=none;endFill=0;" parent="nrtoLdBWplfBHigpbtfn-5" source="d79e8XBhKQ2igxdSj6Hg-36" target="d79e8XBhKQ2igxdSj6Hg-15" edge="1">
          <mxGeometry relative="1" as="geometry" />
        </mxCell>
        <mxCell id="0KlBq7H0z7ffkpI3OsFQ-31" style="edgeStyle=none;shape=connector;rounded=0;orthogonalLoop=1;jettySize=auto;html=1;labelBackgroundColor=default;strokeColor=#FFFFFF;align=center;verticalAlign=middle;fontFamily=Helvetica;fontSize=11;fontColor=default;endArrow=none;endFill=0;" parent="nrtoLdBWplfBHigpbtfn-5" source="d79e8XBhKQ2igxdSj6Hg-29" target="R8yv3j7y8IBAC_rJrTb6-1" edge="1">
          <mxGeometry relative="1" as="geometry" />
        </mxCell>
        <mxCell id="0KlBq7H0z7ffkpI3OsFQ-32" style="edgeStyle=none;shape=connector;rounded=0;orthogonalLoop=1;jettySize=auto;html=1;labelBackgroundColor=default;strokeColor=#FFFFFF;align=center;verticalAlign=middle;fontFamily=Helvetica;fontSize=11;fontColor=default;endArrow=none;endFill=0;" parent="nrtoLdBWplfBHigpbtfn-5" source="R8yv3j7y8IBAC_rJrTb6-1" target="d79e8XBhKQ2igxdSj6Hg-15" edge="1">
          <mxGeometry relative="1" as="geometry" />
        </mxCell>
        <mxCell id="0Xb8Ie2mT24lhCVPNa7t-3" value="TAXON OID" style="ellipse;whiteSpace=wrap;html=1;align=center;labelBackgroundColor=none;fontFamily=Helvetica;strokeColor=#FFFFFF;fillColor=#6bad3e;fontColor=#000000;labelBorderColor=none;fontStyle=0;" parent="nrtoLdBWplfBHigpbtfn-5" vertex="1">
          <mxGeometry x="-23" y="-18" width="100" height="40" as="geometry" />
        </mxCell>
        <mxCell id="0KlBq7H0z7ffkpI3OsFQ-30" style="edgeStyle=none;shape=connector;rounded=0;orthogonalLoop=1;jettySize=auto;html=1;labelBackgroundColor=default;strokeColor=#FFFFFF;align=center;verticalAlign=middle;fontFamily=Helvetica;fontSize=11;fontColor=default;endArrow=none;endFill=0;" parent="nrtoLdBWplfBHigpbtfn-5" source="0Xb8Ie2mT24lhCVPNa7t-3" target="R8yv3j7y8IBAC_rJrTb6-1" edge="1">
          <mxGeometry relative="1" as="geometry" />
        </mxCell>
        <mxCell id="d79e8XBhKQ2igxdSj6Hg-80" value="DERIVED" style="shape=rhombus;perimeter=rhombusPerimeter;whiteSpace=wrap;html=1;align=center;labelBackgroundColor=none;fontFamily=Helvetica;labelBorderColor=none;fillColor=#48cb8e;strokeColor=#FFFFFF;fontColor=#000000;rounded=0;" parent="nrtoLdBWplfBHigpbtfn-5" vertex="1">
          <mxGeometry x="185" y="165" width="120" height="70" as="geometry" />
        </mxCell>
        <mxCell id="0Xb8Ie2mT24lhCVPNa7t-19" value="" style="shape=link;html=1;rounded=0;labelBackgroundColor=none;fontFamily=Helvetica;labelBorderColor=none;strokeColor=#FFFFFF;fontColor=#FFFFFF;" parent="nrtoLdBWplfBHigpbtfn-5" source="d79e8XBhKQ2igxdSj6Hg-80" target="d79e8XBhKQ2igxdSj6Hg-15" edge="1">
          <mxGeometry relative="1" as="geometry">
            <mxPoint x="1069" y="-208" as="sourcePoint" />
            <mxPoint x="1069" y="-258" as="targetPoint" />
          </mxGeometry>
        </mxCell>
        <mxCell id="0Xb8Ie2mT24lhCVPNa7t-20" value="Ν" style="resizable=0;html=1;whiteSpace=wrap;align=right;verticalAlign=bottom;labelBackgroundColor=none;fontFamily=Helvetica;labelBorderColor=none;fontColor=#FFFFFF;" parent="0Xb8Ie2mT24lhCVPNa7t-19" connectable="0" vertex="1">
          <mxGeometry relative="1" as="geometry">
            <mxPoint x="-9" y="41" as="offset" />
          </mxGeometry>
        </mxCell>
        <mxCell id="nrtoLdBWplfBHigpbtfn-6" value="" style="group" vertex="1" connectable="0" parent="1">
          <mxGeometry x="-1182" y="775" width="466" height="456" as="geometry" />
        </mxCell>
        <mxCell id="d79e8XBhKQ2igxdSj6Hg-16" value="DATASET" style="rounded=0;whiteSpace=wrap;html=1;labelBackgroundColor=none;fontFamily=Helvetica;fillColor=#589cdb;strokeColor=#FFFFFF;fontColor=#000000;fontStyle=1;" parent="nrtoLdBWplfBHigpbtfn-6" vertex="1">
          <mxGeometry x="183" y="74" width="130" height="60" as="geometry" />
        </mxCell>
        <mxCell id="0KlBq7H0z7ffkpI3OsFQ-20" style="edgeStyle=none;shape=connector;rounded=0;orthogonalLoop=1;jettySize=auto;html=1;labelBackgroundColor=default;strokeColor=#FFFFFF;align=center;verticalAlign=middle;fontFamily=Helvetica;fontSize=11;fontColor=default;endArrow=none;endFill=0;" parent="nrtoLdBWplfBHigpbtfn-6" source="d79e8XBhKQ2igxdSj6Hg-28" target="d79e8XBhKQ2igxdSj6Hg-16" edge="1">
          <mxGeometry relative="1" as="geometry" />
        </mxCell>
        <mxCell id="d79e8XBhKQ2igxdSj6Hg-28" value="TAXON OID" style="ellipse;whiteSpace=wrap;html=1;align=center;labelBackgroundColor=none;fontFamily=Helvetica;fillColor=#6bad3e;strokeColor=#FFFFFF;fontColor=#000000;labelBorderColor=none;fontStyle=0;" parent="nrtoLdBWplfBHigpbtfn-6" vertex="1">
          <mxGeometry y="34" width="90" height="40" as="geometry" />
        </mxCell>
        <mxCell id="0KlBq7H0z7ffkpI3OsFQ-18" style="edgeStyle=none;shape=connector;rounded=0;orthogonalLoop=1;jettySize=auto;html=1;labelBackgroundColor=default;strokeColor=#FFFFFF;align=center;verticalAlign=middle;fontFamily=Helvetica;fontSize=11;fontColor=default;endArrow=none;endFill=0;" parent="nrtoLdBWplfBHigpbtfn-6" source="d79e8XBhKQ2igxdSj6Hg-43" target="d79e8XBhKQ2igxdSj6Hg-16" edge="1">
          <mxGeometry relative="1" as="geometry" />
        </mxCell>
        <mxCell id="d79e8XBhKQ2igxdSj6Hg-43" value="&lt;u&gt;&lt;b&gt;SAMPLE NAME&lt;/b&gt;&lt;/u&gt;" style="ellipse;whiteSpace=wrap;html=1;align=center;labelBackgroundColor=none;fontFamily=Helvetica;fillColor=#6bad3e;strokeColor=#FFFFFF;fontColor=#000000;labelBorderColor=none;fontStyle=0;" parent="nrtoLdBWplfBHigpbtfn-6" vertex="1">
          <mxGeometry x="39" y="100" width="100" height="40" as="geometry" />
        </mxCell>
        <mxCell id="0KlBq7H0z7ffkpI3OsFQ-22" style="edgeStyle=none;shape=connector;rounded=0;orthogonalLoop=1;jettySize=auto;html=1;labelBackgroundColor=default;strokeColor=#FFFFFF;align=center;verticalAlign=middle;fontFamily=Helvetica;fontSize=11;fontColor=default;endArrow=none;endFill=0;" parent="nrtoLdBWplfBHigpbtfn-6" source="d79e8XBhKQ2igxdSj6Hg-44" target="d79e8XBhKQ2igxdSj6Hg-16" edge="1">
          <mxGeometry relative="1" as="geometry" />
        </mxCell>
        <mxCell id="d79e8XBhKQ2igxdSj6Hg-44" value="SAMPLE TYPE" style="ellipse;whiteSpace=wrap;html=1;align=center;labelBackgroundColor=none;fontFamily=Helvetica;labelBorderColor=none;fillColor=#6bad3e;strokeColor=#FFFFFF;fontColor=#000000;fontStyle=0;" parent="nrtoLdBWplfBHigpbtfn-6" vertex="1">
          <mxGeometry x="366" width="100" height="40" as="geometry" />
        </mxCell>
        <mxCell id="0KlBq7H0z7ffkpI3OsFQ-23" style="edgeStyle=none;shape=connector;rounded=0;orthogonalLoop=1;jettySize=auto;html=1;labelBackgroundColor=default;strokeColor=#FFFFFF;align=center;verticalAlign=middle;fontFamily=Helvetica;fontSize=11;fontColor=default;endArrow=none;endFill=0;exitX=0.03;exitY=0.525;exitDx=0;exitDy=0;exitPerimeter=0;" parent="nrtoLdBWplfBHigpbtfn-6" source="Kpe2y5wFK3_2QbmaVthL-3" target="d79e8XBhKQ2igxdSj6Hg-16" edge="1">
          <mxGeometry relative="1" as="geometry">
            <mxPoint x="381.05559680160445" y="173.54056122070438" as="sourcePoint" />
          </mxGeometry>
        </mxCell>
        <mxCell id="0KlBq7H0z7ffkpI3OsFQ-24" style="edgeStyle=none;shape=connector;rounded=0;orthogonalLoop=1;jettySize=auto;html=1;labelBackgroundColor=default;strokeColor=#FFFFFF;align=center;verticalAlign=middle;fontFamily=Helvetica;fontSize=11;fontColor=default;endArrow=none;endFill=0;" parent="nrtoLdBWplfBHigpbtfn-6" source="d79e8XBhKQ2igxdSj6Hg-46" target="d79e8XBhKQ2igxdSj6Hg-16" edge="1">
          <mxGeometry relative="1" as="geometry" />
        </mxCell>
        <mxCell id="d79e8XBhKQ2igxdSj6Hg-46" value="&lt;div&gt;SEQUENCING CENTER&lt;/div&gt;" style="ellipse;whiteSpace=wrap;html=1;align=center;labelBackgroundColor=none;fontFamily=Helvetica;fillColor=#6bad3e;strokeColor=#FFFFFF;fontColor=#000000;labelBorderColor=none;fontStyle=0;" parent="nrtoLdBWplfBHigpbtfn-6" vertex="1">
          <mxGeometry x="371" y="40" width="100" height="40" as="geometry" />
        </mxCell>
        <mxCell id="0KlBq7H0z7ffkpI3OsFQ-21" style="edgeStyle=none;shape=connector;rounded=0;orthogonalLoop=1;jettySize=auto;html=1;labelBackgroundColor=default;strokeColor=#FFFFFF;align=center;verticalAlign=middle;fontFamily=Helvetica;fontSize=11;fontColor=default;endArrow=none;endFill=0;" parent="nrtoLdBWplfBHigpbtfn-6" source="d79e8XBhKQ2igxdSj6Hg-48" target="d79e8XBhKQ2igxdSj6Hg-16" edge="1">
          <mxGeometry relative="1" as="geometry" />
        </mxCell>
        <mxCell id="d79e8XBhKQ2igxdSj6Hg-48" value="PUBLISHED" style="ellipse;whiteSpace=wrap;html=1;align=center;labelBackgroundColor=none;fontFamily=Helvetica;fillColor=#6bad3e;strokeColor=#FFFFFF;fontColor=#000000;labelBorderColor=none;fontStyle=0;" parent="nrtoLdBWplfBHigpbtfn-6" vertex="1">
          <mxGeometry x="67" width="94" height="46" as="geometry" />
        </mxCell>
        <mxCell id="0KlBq7H0z7ffkpI3OsFQ-17" style="edgeStyle=none;shape=connector;rounded=0;orthogonalLoop=1;jettySize=auto;html=1;labelBackgroundColor=default;strokeColor=#FFFFFF;align=center;verticalAlign=middle;fontFamily=Helvetica;fontSize=11;fontColor=default;endArrow=none;endFill=0;" parent="nrtoLdBWplfBHigpbtfn-6" source="d79e8XBhKQ2igxdSj6Hg-49" target="d79e8XBhKQ2igxdSj6Hg-16" edge="1">
          <mxGeometry relative="1" as="geometry" />
        </mxCell>
        <mxCell id="d79e8XBhKQ2igxdSj6Hg-49" value="PUBLIC AVAILABILITY" style="ellipse;whiteSpace=wrap;html=1;align=center;labelBackgroundColor=none;fontFamily=Helvetica;fillColor=#6bad3e;strokeColor=#FFFFFF;fontColor=#000000;labelBorderColor=none;fontStyle=0;" parent="nrtoLdBWplfBHigpbtfn-6" vertex="1">
          <mxGeometry x="-5" y="153.5" width="100" height="40" as="geometry" />
        </mxCell>
        <mxCell id="0KlBq7H0z7ffkpI3OsFQ-19" style="edgeStyle=none;shape=connector;rounded=0;orthogonalLoop=1;jettySize=auto;html=1;labelBackgroundColor=default;strokeColor=#FFFFFF;align=center;verticalAlign=middle;fontFamily=Helvetica;fontSize=11;fontColor=default;endArrow=none;endFill=0;" parent="nrtoLdBWplfBHigpbtfn-6" source="d79e8XBhKQ2igxdSj6Hg-50" target="d79e8XBhKQ2igxdSj6Hg-16" edge="1">
          <mxGeometry relative="1" as="geometry" />
        </mxCell>
        <mxCell id="d79e8XBhKQ2igxdSj6Hg-52" value="&lt;div&gt;NO. SCAFFOLDS&lt;/div&gt;" style="ellipse;whiteSpace=wrap;html=1;align=center;labelBackgroundColor=none;fontFamily=Helvetica;fillColor=#6bad3e;strokeColor=#FFFFFF;fontColor=#000000;labelBorderColor=none;fontStyle=0;" parent="nrtoLdBWplfBHigpbtfn-6" vertex="1">
          <mxGeometry x="366" y="143" width="100" height="40" as="geometry" />
        </mxCell>
        <mxCell id="0KlBq7H0z7ffkpI3OsFQ-26" style="edgeStyle=none;shape=connector;rounded=0;orthogonalLoop=1;jettySize=auto;html=1;labelBackgroundColor=default;strokeColor=#FFFFFF;align=center;verticalAlign=middle;fontFamily=Helvetica;fontSize=11;fontColor=default;endArrow=none;endFill=0;" parent="nrtoLdBWplfBHigpbtfn-6" source="R8yv3j7y8IBAC_rJrTb6-3" target="d79e8XBhKQ2igxdSj6Hg-16" edge="1">
          <mxGeometry relative="1" as="geometry" />
        </mxCell>
        <mxCell id="R8yv3j7y8IBAC_rJrTb6-3" value="GOLD REFERENCE" style="ellipse;shape=doubleEllipse;margin=3;whiteSpace=wrap;html=1;align=center;labelBackgroundColor=none;fontFamily=Helvetica;fillColor=#6bad3e;strokeColor=#FFFFFF;fontColor=#000000;labelBorderColor=none;fontStyle=0;strokeWidth=2;" parent="nrtoLdBWplfBHigpbtfn-6" vertex="1">
          <mxGeometry x="366" y="186" width="100" height="40" as="geometry" />
        </mxCell>
        <mxCell id="0KlBq7H0z7ffkpI3OsFQ-25" style="edgeStyle=none;shape=connector;rounded=0;orthogonalLoop=1;jettySize=auto;html=1;labelBackgroundColor=default;strokeColor=#FFFFFF;align=center;verticalAlign=middle;fontFamily=Helvetica;fontSize=11;fontColor=default;endArrow=none;endFill=0;" parent="nrtoLdBWplfBHigpbtfn-6" source="d79e8XBhKQ2igxdSj6Hg-52" target="d79e8XBhKQ2igxdSj6Hg-16" edge="1">
          <mxGeometry relative="1" as="geometry" />
        </mxCell>
        <mxCell id="Kpe2y5wFK3_2QbmaVthL-3" value="LOCATION" style="ellipse;shape=doubleEllipse;margin=3;whiteSpace=wrap;html=1;align=center;labelBackgroundColor=none;fontFamily=Helvetica;fillColor=#6bad3e;strokeColor=#FFFFFF;fontColor=#000000;labelBorderColor=none;fontStyle=0;strokeWidth=2;" vertex="1" parent="nrtoLdBWplfBHigpbtfn-6">
          <mxGeometry x="355" y="100" width="100" height="40" as="geometry" />
        </mxCell>
        <mxCell id="d79e8XBhKQ2igxdSj6Hg-50" value="GENOME SIZE" style="ellipse;whiteSpace=wrap;html=1;align=center;labelBackgroundColor=none;fontFamily=Helvetica;fillColor=#6bad3e;strokeColor=#FFFFFF;fontColor=#000000;labelBorderColor=none;fontStyle=0;" parent="nrtoLdBWplfBHigpbtfn-6" vertex="1">
          <mxGeometry x="-3" y="200" width="100" height="40" as="geometry" />
        </mxCell>
        <mxCell id="d79e8XBhKQ2igxdSj6Hg-73" value="COLLECTED" style="shape=rhombus;perimeter=rhombusPerimeter;whiteSpace=wrap;html=1;align=center;direction=south;labelBackgroundColor=none;fontFamily=Helvetica;fillColor=#48cb8e;strokeColor=#FFFFFF;fontColor=#000000;rounded=0;" parent="nrtoLdBWplfBHigpbtfn-6" vertex="1">
          <mxGeometry x="193" y="180" width="110" height="72" as="geometry" />
        </mxCell>
        <mxCell id="0Xb8Ie2mT24lhCVPNa7t-10" value="" style="shape=link;html=1;rounded=0;entryX=0.5;entryY=1;entryDx=0;entryDy=0;labelBackgroundColor=none;fontFamily=Helvetica;strokeColor=#FFFFFF;fontColor=#FFFFFF;" parent="nrtoLdBWplfBHigpbtfn-6" source="d79e8XBhKQ2igxdSj6Hg-73" target="d79e8XBhKQ2igxdSj6Hg-16" edge="1">
          <mxGeometry relative="1" as="geometry">
            <mxPoint x="627" y="-264" as="sourcePoint" />
            <mxPoint x="962.01" y="-507" as="targetPoint" />
          </mxGeometry>
        </mxCell>
        <mxCell id="0Xb8Ie2mT24lhCVPNa7t-11" value="Ν" style="resizable=0;html=1;whiteSpace=wrap;align=right;verticalAlign=bottom;labelBackgroundColor=none;fontFamily=Helvetica;fontColor=#FFFFFF;" parent="0Xb8Ie2mT24lhCVPNa7t-10" connectable="0" vertex="1">
          <mxGeometry relative="1" as="geometry">
            <mxPoint x="-5" y="28" as="offset" />
          </mxGeometry>
        </mxCell>
        <mxCell id="nrtoLdBWplfBHigpbtfn-8" value="" style="group" vertex="1" connectable="0" parent="nrtoLdBWplfBHigpbtfn-6">
          <mxGeometry x="47" y="311" width="372" height="136" as="geometry" />
        </mxCell>
        <mxCell id="d79e8XBhKQ2igxdSj6Hg-14" value="HABITAT" style="rounded=0;whiteSpace=wrap;html=1;labelBackgroundColor=none;fontFamily=Helvetica;fillColor=#589cdb;fontColor=#000000;strokeColor=#FFFFFF;fontStyle=1" parent="nrtoLdBWplfBHigpbtfn-8" vertex="1">
          <mxGeometry x="136" y="-14" width="130" height="60" as="geometry" />
        </mxCell>
        <mxCell id="d79e8XBhKQ2igxdSj6Hg-66" value="&lt;u&gt;&lt;b&gt;NAME&lt;/b&gt;&lt;/u&gt;" style="ellipse;whiteSpace=wrap;html=1;align=center;labelBackgroundColor=none;fontFamily=Helvetica;fillColor=#6bad3e;strokeColor=#FFFFFF;fontColor=#000000;labelBorderColor=none;fontStyle=0;" parent="nrtoLdBWplfBHigpbtfn-8" vertex="1">
          <mxGeometry x="141" y="66" width="120" height="51" as="geometry" />
        </mxCell>
        <mxCell id="d79e8XBhKQ2igxdSj6Hg-67" value="CLASSIFICATION" style="ellipse;whiteSpace=wrap;html=1;align=center;labelBackgroundColor=none;fontFamily=Helvetica;fillColor=#6bad3e;strokeColor=#FFFFFF;fontColor=#000000;labelBorderColor=none;fontStyle=0;" parent="nrtoLdBWplfBHigpbtfn-8" vertex="1">
          <mxGeometry x="274" y="21" width="111" height="55" as="geometry" />
        </mxCell>
        <mxCell id="R8yv3j7y8IBAC_rJrTb6-2" value="CATEGORY" style="ellipse;shape=doubleEllipse;margin=3;whiteSpace=wrap;html=1;align=center;labelBackgroundColor=none;fontFamily=Helvetica;fillColor=#6bad3e;strokeColor=#FFFFFF;fontColor=#000000;labelBorderColor=none;fontStyle=0;strokeWidth=2;" parent="nrtoLdBWplfBHigpbtfn-8" vertex="1">
          <mxGeometry x="3" y="26" width="110" height="50" as="geometry" />
        </mxCell>
        <mxCell id="0KlBq7H0z7ffkpI3OsFQ-28" style="edgeStyle=none;shape=connector;rounded=0;orthogonalLoop=1;jettySize=auto;html=1;labelBackgroundColor=default;strokeColor=#FFFFFF;align=center;verticalAlign=middle;fontFamily=Helvetica;fontSize=11;fontColor=default;endArrow=none;endFill=0;" parent="nrtoLdBWplfBHigpbtfn-8" source="d79e8XBhKQ2igxdSj6Hg-66" target="d79e8XBhKQ2igxdSj6Hg-14" edge="1">
          <mxGeometry relative="1" as="geometry" />
        </mxCell>
        <mxCell id="0KlBq7H0z7ffkpI3OsFQ-29" style="edgeStyle=none;shape=connector;rounded=0;orthogonalLoop=1;jettySize=auto;html=1;labelBackgroundColor=default;strokeColor=#FFFFFF;align=center;verticalAlign=middle;fontFamily=Helvetica;fontSize=11;fontColor=default;endArrow=none;endFill=0;" parent="nrtoLdBWplfBHigpbtfn-8" source="d79e8XBhKQ2igxdSj6Hg-67" target="d79e8XBhKQ2igxdSj6Hg-14" edge="1">
          <mxGeometry relative="1" as="geometry" />
        </mxCell>
        <mxCell id="0KlBq7H0z7ffkpI3OsFQ-27" style="edgeStyle=none;shape=connector;rounded=0;orthogonalLoop=1;jettySize=auto;html=1;labelBackgroundColor=default;strokeColor=#FFFFFF;align=center;verticalAlign=middle;fontFamily=Helvetica;fontSize=11;fontColor=default;endArrow=none;endFill=0;" parent="nrtoLdBWplfBHigpbtfn-8" source="R8yv3j7y8IBAC_rJrTb6-2" target="d79e8XBhKQ2igxdSj6Hg-14" edge="1">
          <mxGeometry relative="1" as="geometry" />
        </mxCell>
        <mxCell id="0Xb8Ie2mT24lhCVPNa7t-12" value="" style="shape=link;html=1;rounded=0;labelBackgroundColor=none;fontFamily=Helvetica;strokeColor=#FFFFFF;fontColor=#FFFFFF;" parent="nrtoLdBWplfBHigpbtfn-6" source="d79e8XBhKQ2igxdSj6Hg-14" target="d79e8XBhKQ2igxdSj6Hg-73" edge="1">
          <mxGeometry relative="1" as="geometry">
            <mxPoint x="971.01" y="-209" as="sourcePoint" />
            <mxPoint x="971.01" y="-279" as="targetPoint" />
          </mxGeometry>
        </mxCell>
        <mxCell id="0Xb8Ie2mT24lhCVPNa7t-13" value="1" style="resizable=0;html=1;whiteSpace=wrap;align=right;verticalAlign=bottom;labelBackgroundColor=none;fontFamily=Helvetica;fontColor=#FFFFFF;" parent="0Xb8Ie2mT24lhCVPNa7t-12" connectable="0" vertex="1">
          <mxGeometry relative="1" as="geometry">
            <mxPoint x="11" y="-4" as="offset" />
          </mxGeometry>
        </mxCell>
        <mxCell id="d79e8XBhKQ2igxdSj6Hg-38" value="NCBI TAXONOMY" style="ellipse;whiteSpace=wrap;html=1;align=center;labelBackgroundColor=none;fontFamily=Helvetica;labelBorderColor=none;strokeColor=#FFFFFF;fillColor=#6bad3e;fontColor=#000000;fontStyle=0;" parent="1" vertex="1">
          <mxGeometry x="-830" y="540" width="100" height="40" as="geometry" />
        </mxCell>
        <mxCell id="0KlBq7H0z7ffkpI3OsFQ-33" style="edgeStyle=none;shape=connector;rounded=0;orthogonalLoop=1;jettySize=auto;html=1;labelBackgroundColor=default;strokeColor=#FFFFFF;align=center;verticalAlign=middle;fontFamily=Helvetica;fontSize=11;fontColor=default;endArrow=none;endFill=0;" parent="1" source="d79e8XBhKQ2igxdSj6Hg-38" target="d79e8XBhKQ2igxdSj6Hg-15" edge="1">
          <mxGeometry relative="1" as="geometry" />
        </mxCell>
      </root>
    </mxGraphModel>
  </diagram>
</mxfile>
